<svg width="11" height="11" viewBox="0 0 11 11" fill="none" xmlns="http://www.w3.org/2000/svg">
<path d="M5.5 0C7.01991 0 8.31655 0.53795 9.38993 1.61385C10.4633 2.68975 11 3.98513 11 5.5C11 7.01487 10.4633 8.31025 9.38993 9.38615C8.31655 10.4621 7.01991 11 5.5 11C3.98009 11 2.68345 10.4621 1.61007 9.38615C0.53669 8.31025 0 7.01487 0 5.5C0 3.98513 0.53669 2.68975 1.61007 1.61385C2.68345 0.53795 3.98009 0 5.5 0ZM9.29977 3.30516C8.75019 2.34116 7.96019 1.68701 6.92974 1.34272C7.25605 1.94523 7.50507 2.59937 7.67682 3.30516H9.29977ZM5.48712 1.11033C5.02342 1.78169 4.67994 2.5133 4.45667 3.30516H6.54333C6.30289 2.5133 5.95082 1.78169 5.48712 1.11033ZM1.23653 6.61033H3.09133C3.03981 6.17997 3.01405 5.80986 3.01405 5.5C3.01405 5.19014 3.03981 4.82003 3.09133 4.38967H1.23653C1.15066 4.7856 1.10773 5.15571 1.10773 5.5C1.10773 5.84429 1.15066 6.2144 1.23653 6.61033ZM1.70023 7.69484C2.2498 8.65884 3.03981 9.31299 4.07026 9.65728C3.74395 9.05477 3.49493 8.40063 3.32318 7.69484H1.70023ZM3.32318 3.30516C3.49493 2.59937 3.74395 1.94523 4.07026 1.34272C3.03981 1.68701 2.2498 2.34116 1.70023 3.30516H3.32318ZM5.48712 9.88967C5.95082 9.21831 6.30289 8.4867 6.54333 7.69484H4.45667C4.67994 8.4867 5.02342 9.21831 5.48712 9.88967ZM6.77518 6.61033C6.84387 6.17997 6.87822 5.80986 6.87822 5.5C6.87822 5.19014 6.84387 4.82003 6.77518 4.38967H4.19906C4.14754 4.82003 4.12178 5.19014 4.12178 5.5C4.12178 5.80986 4.14754 6.17997 4.19906 6.61033H6.77518ZM6.92974 9.65728C7.96019 9.31299 8.75019 8.65884 9.29977 7.69484H7.67682C7.50507 8.40063 7.25605 9.05477 6.92974 9.65728ZM7.8829 6.61033H9.73771C9.84075 6.2144 9.89227 5.84429 9.89227 5.5C9.89227 5.15571 9.84075 4.7856 9.73771 4.38967H7.8829C7.93443 4.82003 7.96019 5.19014 7.96019 5.5C7.96019 5.80986 7.93443 6.17997 7.8829 6.61033Z" fill="#C1C1C1"/>
</svg>
