<svg width="17" height="18" viewBox="0 0 17 18" fill="none" xmlns="http://www.w3.org/2000/svg">
<rect x="1.5" y="7.87402" width="2" height="6" fill="#949494"/>
<rect x="1" y="6.87402" width="3" height="1" rx="0.5" fill="#949494"/>
<rect x="1" y="13.874" width="3" height="1" rx="0.5" fill="#949494"/>
<rect x="5.5" y="7.87402" width="2" height="6" fill="#949494"/>
<rect x="5" y="6.87402" width="3" height="1" rx="0.5" fill="#949494"/>
<rect x="5" y="13.874" width="3" height="1" rx="0.5" fill="#949494"/>
<rect x="9.5" y="7.87402" width="2" height="6" fill="#949494"/>
<rect x="9" y="6.87402" width="3" height="1" rx="0.5" fill="#949494"/>
<rect x="9" y="13.874" width="3" height="1" rx="0.5" fill="#949494"/>
<rect x="13.5" y="7.87402" width="2" height="6" fill="#949494"/>
<rect x="13" y="6.87402" width="3" height="1" rx="0.5" fill="#949494"/>
<rect x="13" y="13.874" width="3" height="1" rx="0.5" fill="#949494"/>
<rect y="15.874" width="17" height="2" rx="1" fill="#949494"/>
<path fill-rule="evenodd" clip-rule="evenodd" d="M15.9904 5.87415C17.0382 5.87415 17.3805 4.46733 16.4498 3.98593L8.95978 0.111783C8.67163 -0.0372607 8.32908 -0.0372609 8.04093 0.111782L0.55091 3.98593C-0.379781 4.46732 -0.0374881 5.87415 1.01033 5.87415H15.9904ZM8.53345 4.37418C9.08573 4.37418 9.53345 3.92646 9.53345 3.37418C9.53345 2.82189 9.08573 2.37418 8.53345 2.37418C7.98116 2.37418 7.53345 2.82189 7.53345 3.37418C7.53345 3.92646 7.98116 4.37418 8.53345 4.37418Z" fill="#949494"/>
</svg>
