<svg width="16" height="18" viewBox="0 0 16 18" fill="none" xmlns="http://www.w3.org/2000/svg">
<path d="M4.86971 3C5.71505 3 6.39352 2.32312 6.39352 1.5C6.39352 0.667875 5.71505 0 4.86971 0C4.02933 0 3.3459 0.66825 3.3459 1.5C3.3459 2.32312 4.02933 3 4.86971 3ZM5.94552 16.7531C3.35048 16.7531 1.2461 14.6528 1.2461 12.0518C1.2461 10.6279 1.88952 9.35738 2.89333 8.49337L2.80991 7.02262C1.12914 8.07337 0 9.92175 0 12.0518C0 15.3337 2.66019 18 5.94552 18C8.36305 18 10.4998 16.3234 11.4286 14.25L10.5234 13.023C10.0762 15.1474 8.20343 16.7531 5.94552 16.7531ZM15.2381 13.875H14.4762L11.4286 9.75C11.2636 9.46463 10.6667 8.625 9.90476 8.625H6.47619V7.125H9.52381C9.91848 7.125 10.3444 6.95962 10.3444 6.56025C10.3444 6.16387 9.92952 6 9.52381 6H6.47619V4.5C6.42019 3.66825 5.71429 3.375 4.95619 3.39225C4.19048 3.4095 3.80952 3.75 3.80952 4.5V9.75C3.8819 10.5922 4.4979 10.875 5.33333 10.875H9.90476L12.5714 14.25C12.7432 14.5297 13.3333 15.375 13.3333 15.375H15.2381C15.6312 15.375 16 15.0232 16 14.625C16 14.2286 15.6434 13.875 15.2381 13.875Z" fill="#949494"/>
</svg>
