<svg width="14" height="18" viewBox="0 0 14 18" fill="none" xmlns="http://www.w3.org/2000/svg">
<path d="M2.78644 11.0466L0.712075 5.12111C1.35525 4.53403 2.08231 4.31656 2.88482 4.30225C3.8047 4.28585 4.80347 4.53656 5.86672 4.83123C5.96556 4.85862 6.06507 4.88644 6.16513 4.91441C7.11097 5.17877 8.10548 5.45674 9.03828 5.51991C9.8671 5.57604 10.6909 5.46657 11.4305 5.01548L13.237 10.176C11.7383 11.7418 9.76476 11.4261 7.67616 10.9372C7.55114 10.9079 7.42526 10.8779 7.2989 10.8478C6.37777 10.6283 5.43156 10.4028 4.60992 10.4125C4.12939 10.4182 3.65318 10.5028 3.22345 10.7373C3.06673 10.8228 2.9209 10.9258 2.78644 11.0466Z" stroke="#A0A0A0"/>
<rect x="0.268027" y="0.126765" width="0.422218" height="12.8087" transform="matrix(0.939202 -0.343365 0.330413 0.943836 0.0935513 5.04251)" stroke="#A0A0A0" stroke-width="0.422218"/>
</svg>
