<svg width="9" height="10" viewBox="0 0 9 10" fill="none" xmlns="http://www.w3.org/2000/svg">
<path fill-rule="evenodd" clip-rule="evenodd" d="M9 4.82593C9 7.31121 6.98528 9.32593 4.5 9.32593C2.01472 9.32593 0 7.31121 0 4.82593C0 2.34065 2.01472 0.325928 4.5 0.325928C5.71372 0.325928 6.81522 0.806438 7.62463 1.5876L4.51157 4.9746L2.94861 3.2741C2.68193 2.98395 2.24956 2.98395 1.98288 3.2741C1.7162 3.56424 1.7162 4.03466 1.98288 4.3248L4.02569 6.54738C4.03062 6.55274 4.03559 6.55799 4.04063 6.56315C4.30811 6.84066 4.73175 6.83647 4.99452 6.55058L8.49146 2.7459C8.81632 3.368 9 4.07551 9 4.82593Z" fill="#F74B4B"/>
</svg>
