<svg width="12" height="16" viewBox="0 0 12 16" fill="none" xmlns="http://www.w3.org/2000/svg">
<path d="M7.57846 12.2C7.27846 12.2 7.07846 12.1 6.77846 12L5.57846 11.5L4.37846 12C4.17846 12.1 3.87846 12.2 3.57846 12.2C3.37846 12.2 3.27846 12.2 3.07846 12.1L2.57846 16L5.57846 14L8.57846 16L7.97846 12.1C7.87846 12.2 7.67846 12.2 7.57846 12.2Z" fill="#F74B4B"/>
<path d="M10.4785 5.9C10.3785 5.7 10.3785 5.4 10.4785 5.2L11.0785 4C11.2785 3.6 11.0785 3.1 10.5785 2.9L9.27846 2.4C9.07846 2.3 8.87846 2.1 8.77846 1.9L8.27846 0.6C8.17846 0.2 7.87846 0 7.57846 0C7.47846 0 7.27846 0 7.17846 0.1L5.87846 0.7H5.57846C5.47846 0.7 5.37846 0.7 5.27846 0.6L3.97846 0.1C3.87846 0 3.67846 0 3.57846 0C3.27846 0 2.97846 0.2 2.77846 0.5L2.27846 1.9C2.27846 2.1 2.07846 2.3 1.87846 2.4L0.478461 2.9C0.0784611 3 -0.121539 3.5 0.078461 4L0.678461 5.3C0.778461 5.5 0.778461 5.8 0.678461 6L0.078461 7.2C-0.121539 7.6 0.0784609 8.1 0.578461 8.3L1.87846 8.8C2.07846 8.9 2.27846 9.1 2.37846 9.3L2.87846 10.6C2.97846 11 3.27846 11.2 3.57846 11.2C3.67846 11.2 3.77846 11.2 3.87846 11.1L5.17846 10.5C5.27846 10.5 5.37846 10.4 5.47846 10.4C5.57846 10.4 5.67846 10.4 5.77846 10.5L7.07846 11.1C7.17846 11.2 7.27846 11.2 7.37846 11.2C7.67846 11.2 7.97846 11 8.17846 10.7L8.67846 9.4C8.77846 9.2 8.97846 9 9.17846 8.9L10.4785 8.4C10.8785 8.2 11.1785 7.7 10.9785 7.3L10.4785 5.9ZM5.57846 9.6C3.37846 9.6 1.57846 7.8 1.57846 5.6C1.57846 3.4 3.37846 1.6 5.57846 1.6C7.77846 1.6 9.57846 3.4 9.57846 5.6C9.57846 7.8 7.77846 9.6 5.57846 9.6Z" fill="#F74B4B"/>
<path d="M8.57846 5.6C8.57846 6.39565 8.26239 7.15871 7.69978 7.72132C7.13717 8.28393 6.37411 8.6 5.57846 8.6C4.78281 8.6 4.01975 8.28393 3.45714 7.72132C2.89453 7.15871 2.57846 6.39565 2.57846 5.6C2.57846 4.80435 2.89453 4.04129 3.45714 3.47868C4.01975 2.91607 4.78281 2.6 5.57846 2.6C6.37411 2.6 7.13717 2.91607 7.69978 3.47868C8.26239 4.04129 8.57846 4.80435 8.57846 5.6Z" fill="#F74B4B"/>
</svg>
