<svg width="23" height="17" viewBox="0 0 23 17" fill="none" xmlns="http://www.w3.org/2000/svg">
<path fill-rule="evenodd" clip-rule="evenodd" d="M7.67542 0H15.1623L17.658 2.44444H22.6492V16.2963H0.188477V2.44444H5.17978L7.67542 0ZM16.826 9.37037C16.826 12.2954 14.4051 14.6667 11.4188 14.6667C8.4325 14.6667 6.0116 12.2954 6.0116 9.37037C6.0116 6.44531 8.4325 4.07407 11.4188 4.07407C14.4051 4.07407 16.826 6.44531 16.826 9.37037ZM15.1623 9.37036C15.1623 11.3954 13.4863 13.037 11.4188 13.037C9.35138 13.037 7.67538 11.3954 7.67538 9.37036C7.67538 7.34532 9.35138 5.7037 11.4188 5.7037C13.4863 5.7037 15.1623 7.34532 15.1623 9.37036Z" fill="white"/>
</svg>
