<svg width="16" height="16" viewBox="0 0 16 16" fill="none" xmlns="http://www.w3.org/2000/svg">
<path d="M7.71468 0.878116C7.80449 0.601723 8.19551 0.601722 8.28532 0.878115L9.95327 6.01155C9.99343 6.13516 10.1086 6.21885 10.2386 6.21885H15.6362C15.9268 6.21885 16.0477 6.59073 15.8125 6.76155L11.4458 9.93419C11.3406 10.0106 11.2966 10.146 11.3368 10.2696L13.0048 15.403C13.0946 15.6794 12.7782 15.9093 12.5431 15.7384L8.17634 12.5658C8.07119 12.4894 7.92881 12.4894 7.82366 12.5658L3.4569 15.7384C3.22179 15.9093 2.90544 15.6794 2.99525 15.403L4.6632 10.2696C4.70337 10.146 4.65937 10.0106 4.55422 9.93419L0.187461 6.76155C-0.0476527 6.59073 0.0731797 6.21885 0.363797 6.21885H5.76141C5.89138 6.21885 6.00657 6.13516 6.04673 6.01155L7.71468 0.878116Z" fill="#FEE359"/>
</svg>
