<svg width="39" height="50" viewBox="0 0 39 50" fill="none" xmlns="http://www.w3.org/2000/svg">
<path d="M11.2196 23.8499L9.92564 19.2005C9.64178 18.2867 9.03612 17.7161 8.10868 17.4884L2.85529 16.2668C2.59829 16.2235 2.43028 16.1646 2.35128 16.0901C2.27229 16.0157 2.26952 15.9261 2.34299 15.8213C2.41646 15.7166 2.58012 15.6346 2.83397 15.5756L8.00206 14.0324C8.86578 13.852 9.4351 13.2451 9.71002 12.2116L10.8516 6.94892C11.0802 6.07062 11.3356 6.06274 11.6179 6.92527L13.1583 12.1052C13.3927 13.0717 13.9728 13.6432 14.8986 13.8196L20.152 15.0413C20.409 15.0846 20.5774 15.1563 20.6572 15.2563C20.737 15.3563 20.7398 15.4459 20.6655 15.5251C20.5912 15.6043 20.4272 15.6734 20.1733 15.7325L15.0053 17.2757C14.0441 17.6128 13.5003 18.219 13.3739 19.0941L13.1625 21.8806C12.3569 22.6862 12.1268 22.9163 11.2196 23.8499Z" fill="#C1C1C1"/>
<path d="M29.9956 4.29466L32.3762 3.6266C32.8206 3.49935 33.1062 3.21304 33.2332 2.76767L33.8045 0.381748C33.9315 -0.127249 34.0585 -0.127249 34.1854 0.381748L34.7568 2.76767C34.8837 3.21304 35.1694 3.49935 35.6138 3.6266L37.9943 4.29466C38.3752 4.35828 38.3752 4.45372 37.9943 4.58097L35.6138 5.24903C35.1694 5.37628 34.8837 5.63078 34.7568 6.01252L34.1854 8.49388C34.0585 9.00288 33.9315 9.00288 33.8045 8.49388L33.2332 6.01252C33.1062 5.63078 32.8206 5.37628 32.3762 5.24903L29.9956 4.58097C29.6147 4.45372 29.6147 4.35828 29.9956 4.29466Z" fill="#C1C1C1"/>
<path d="M27.8218 42.7005L30.2024 42.0324C30.6467 41.9052 30.9324 41.6189 31.0594 41.1735L31.6307 38.7876C31.7577 38.2786 31.8846 38.2786 32.0116 38.7876L32.5829 41.1735C32.7099 41.6189 32.9956 41.9052 33.4399 42.0324L35.8205 42.7005C36.2014 42.7641 36.2014 42.8595 35.8205 42.9868L33.4399 43.6549C32.9956 43.7821 32.7099 44.0366 32.5829 44.4183L32.0116 46.8997C31.8846 47.4087 31.7577 47.4087 31.6307 46.8997L31.0594 44.4183C30.9324 44.0366 30.6467 43.7821 30.2024 43.6549L27.8218 42.9868C27.4409 42.8595 27.4409 42.7641 27.8218 42.7005Z" fill="#C1C1C1"/>
<path fill-rule="evenodd" clip-rule="evenodd" d="M12.6812 44.5652L5.43478 37.3189C5.43478 36.7156 6.03804 35.5073 7.24638 33.6957L0 31.8841L3.62319 26.4493L10.8696 28.2609C18.1159 17.3913 28.9855 13.7681 36.2319 13.7681C36.2319 21.0145 32.6087 31.8841 21.7391 39.1304L23.5507 46.3768L18.1159 50L16.3043 42.7536C14.4928 43.962 13.2844 44.5652 12.6812 44.5652ZM24.4565 28.2609C25.1772 28.2609 25.8684 27.9746 26.378 27.465C26.8876 26.9554 27.1739 26.2642 27.1739 25.5435C27.1739 24.8228 26.8876 24.1316 26.378 23.622C25.8684 23.1124 25.1772 22.8261 24.4565 22.8261C23.7358 22.8261 23.0446 23.1124 22.535 23.622C22.0254 24.1316 21.7391 24.8228 21.7391 25.5435C21.7391 26.2642 22.0254 26.9554 22.535 27.465C23.0446 27.9746 23.7358 28.2609 24.4565 28.2609ZM3.62319 39.1304L5.88768 41.3949C4.67935 42.6033 3.92572 44.2627 3.62319 46.3768C5.73732 46.0743 7.39674 45.3207 8.60507 44.1123L10.8696 46.3768C8.45471 48.7917 4.83152 50 0 50C0 45.1685 1.20833 41.5453 3.62319 39.1304Z" fill="#C1C1C1"/>
</svg>
