<svg width="17" height="16" viewBox="0 0 17 16" fill="none" xmlns="http://www.w3.org/2000/svg">
<path d="M8.21468 0.878116C8.30449 0.601723 8.69551 0.601722 8.78532 0.878115L10.4533 6.01155C10.4934 6.13516 10.6086 6.21885 10.7386 6.21885H16.1362C16.4268 6.21885 16.5477 6.59073 16.3125 6.76155L11.9458 9.93419C11.8406 10.0106 11.7966 10.146 11.8368 10.2696L13.5048 15.403C13.5946 15.6794 13.2782 15.9093 13.0431 15.7384L8.67634 12.5658C8.57119 12.4894 8.42881 12.4894 8.32366 12.5658L3.9569 15.7384C3.72179 15.9093 3.40544 15.6794 3.49525 15.403L5.1632 10.2696C5.20337 10.146 5.15937 10.0106 5.05422 9.93419L0.687461 6.76155C0.452347 6.59073 0.57318 6.21885 0.863797 6.21885H6.26141C6.39138 6.21885 6.50657 6.13516 6.54673 6.01155L8.21468 0.878116Z" fill="#C1C1C1"/>
</svg>
