<svg width="32" height="40" viewBox="0 0 32 40" fill="none" xmlns="http://www.w3.org/2000/svg">
<path fill-rule="evenodd" clip-rule="evenodd" d="M30.1683 40H2.1355C2.1355 39.6094 1.87594 37.5747 1.35681 33.8962C0.837688 30.2176 0.578125 27.7923 0.578125 26.6204C0.578125 26.0018 1.32437 25.4443 2.81686 24.9479C4.30934 24.4515 6.02895 24.012 7.97567 23.6295C9.92239 23.247 11.0904 22.9743 11.4798 22.8116L12.7695 27.1575C13.8564 27.8574 14.9839 28.2074 16.1519 28.2074C17.3199 28.2074 18.4474 27.8574 19.5343 27.1575L20.824 22.8116C21.2134 22.9743 22.3814 23.247 24.3281 23.6295C26.2749 24.012 27.9945 24.4515 29.4869 24.9479C30.9794 25.4443 31.7257 26.0018 31.7257 26.6204C31.7257 27.7923 31.4661 30.2176 30.947 33.8962C30.4279 37.5747 30.1683 39.6094 30.1683 40ZM19.1693 28.3539C18.0986 28.8422 17.0928 29.0782 16.1519 29.0619C15.211 29.0782 14.2052 28.8422 13.1345 28.3539L14.3486 33.4426L16.1519 38.4374L17.9552 33.4426L19.1693 28.3539ZM28.2799 30.6856C28.5037 30.8994 28.6827 31.1538 28.8068 31.4345C28.9355 31.7266 29.0013 32.0369 29.0004 32.3561C29.0004 32.6573 28.9374 32.9712 28.8124 33.2905C28.7087 33.5573 28.5577 33.8341 28.366 34.1135C28.0623 34.5558 27.6446 35.0171 27.1261 35.4847C26.2658 36.2599 25.4157 36.7944 25.3796 36.817L25.1601 36.9545C25.0629 37.0151 24.9379 37.0151 24.8406 36.9545L24.6212 36.817C24.585 36.7953 23.734 36.2599 22.8747 35.4847C22.3561 35.0171 21.9384 34.5558 21.6347 34.1135C21.443 33.8341 21.293 33.5573 21.1884 33.2905C21.0633 32.9712 21.0004 32.6573 21.0004 32.3561C21.0004 32.0369 21.0661 31.7266 21.1948 31.4345C21.3186 31.1536 21.4976 30.8991 21.7217 30.6856C21.9468 30.4703 22.2088 30.3012 22.4996 30.1836C23.4182 29.8109 25.0004 30.2961 25.0004 31.5C25.0004 30.2958 26.5833 29.8108 27.502 30.1836C27.7919 30.3007 28.0559 30.4711 28.2799 30.6856Z" fill="#C1C1C1"/>
<path d="M21.1044 1.92983C21.1044 1.92983 20.1562 0 16.1519 0C9.95284 0 6.80762 4.57485 6.80762 9.7361V21.1926H16.3915C13.6231 21.1926 8.98692 17.2009 8.98692 13.891C8.98692 13.891 7.49218 13.5121 7.49218 11.3185C7.49218 9.58174 8.61931 9.28361 8.61931 9.28361C12.6593 9.28361 20.1566 4.07855 20.1566 4.07855C20.1566 4.07855 21.7276 8.67401 24.1284 9.28361C24.1284 9.28361 25.2908 9.49617 25.2908 11.3185C25.2908 13.5118 23.7399 13.891 23.7399 13.891C23.719 17.2009 19.1612 21.1926 16.3915 21.1926H25.9753V9.7361C25.9753 2.06422 21.1044 1.92983 21.1044 1.92983Z" fill="#C1C1C1"/>
<path d="M21.6426 11.4196C21.6415 11.0486 21.505 10.6906 21.2589 10.413C21.5218 10.451 21.7809 10.4951 22.0339 10.5273C22.2491 10.5903 22.4624 10.6577 22.6678 10.7364C22.7037 10.8586 22.7027 11.0359 22.6643 11.2071C22.6159 11.4252 22.5476 11.6384 22.4603 11.844C22.371 12.0564 22.2694 12.2634 22.156 12.4639C22.0985 12.5649 22.0397 12.6645 21.9729 12.7593C21.9048 12.8517 21.8418 12.9558 21.7381 13.0119C21.9702 12.9335 22.1311 12.7333 22.293 12.5615C22.4487 12.3783 22.5938 12.1843 22.7174 11.9751C22.841 11.766 22.956 11.548 23.0309 11.3032C23.0925 11.0825 23.1606 10.8299 23.0669 10.543C23.3616 10.4931 23.6323 10.3791 23.8671 10.1586C22.3268 10.8278 18.4762 7.70073 17.7061 12.3907C17.9789 11.6982 18.3009 11.2293 18.6535 10.9144C18.5947 11.0764 18.5638 11.2473 18.5621 11.4196C18.5621 11.8281 18.7244 12.2199 19.0132 12.5087C19.3021 12.7976 19.6939 12.9599 20.1024 12.9599C20.5109 12.9599 20.9026 12.7976 21.1915 12.5087C21.4803 12.2199 21.6426 11.8281 21.6426 11.4196Z" fill="#C1C1C1"/>
<path d="M14.0837 11.4197C14.0837 11.2417 14.0477 11.0733 13.9913 10.9148C14.3441 11.2297 14.6659 11.6983 14.9394 12.391C14.1692 7.70077 10.3186 10.8282 8.77832 10.159C9.01312 10.3798 9.28387 10.4934 9.57857 10.5434C9.48445 10.8302 9.55324 11.0828 9.61451 11.3036C9.68947 11.5483 9.80379 11.7664 9.92736 11.9755C10.0521 12.1826 10.1941 12.3787 10.3518 12.5618C10.5144 12.7337 10.6752 12.9342 10.9073 13.0123C10.8029 12.9561 10.741 12.8518 10.6725 12.7597C10.6065 12.6644 10.5454 12.5658 10.4894 12.4643C10.3757 12.2639 10.2741 12.0569 10.1851 11.8444C10.0979 11.6387 10.0294 11.4255 9.98041 11.2074C9.9431 11.0363 9.94105 10.859 9.97767 10.7368C10.1838 10.6584 10.3932 10.5891 10.6054 10.529C10.8594 10.4962 11.1216 10.452 11.3855 10.4133C11.1403 10.6914 11.0044 11.049 11.0031 11.4197C11.0031 11.6219 11.043 11.8222 11.1204 12.0091C11.1978 12.196 11.3113 12.3658 11.4543 12.5088C11.5973 12.6518 11.7671 12.7653 11.954 12.8427C12.1408 12.9201 12.3411 12.9599 12.5434 12.9599C12.7457 12.9599 12.946 12.9201 13.1328 12.8427C13.3197 12.7653 13.4895 12.6518 13.6325 12.5088C13.7756 12.3658 13.889 12.196 13.9664 12.0091C14.0438 11.8222 14.0837 11.6219 14.0837 11.4197Z" fill="#C1C1C1"/>
<path d="M17.6735 17.1066C16.6655 16.7249 16.3232 17.3311 16.3232 17.3311C16.3232 17.3311 15.9809 16.7249 14.9729 17.1066C14.1853 17.4047 12.896 17.2281 12.9004 17.2295C14.9541 20.1474 17.6923 20.1474 19.746 17.2295C19.7508 17.2284 18.4611 17.4047 17.6735 17.1066Z" fill="#C1C1C1"/>
</svg>
