<svg width="30" height="28" viewBox="0 0 30 28" fill="none" xmlns="http://www.w3.org/2000/svg">
<path d="M25.3125 5.25H9.375C8.13286 5.25323 7.44083 5.30523 6.5625 6.125C5.68417 6.94477 5.62846 7.58892 5.625 8.74825V23.625C5.625 26.0312 7.73438 28 10.3125 28H25.3125C27.8906 28 30 26.0312 30 23.625V9.625C30 7.21875 27.8906 5.25 25.3125 5.25ZM12.1875 24.5C11.4413 24.4998 10.7258 24.2229 10.1984 23.7303C9.67093 23.2377 9.37475 22.5697 9.375 21.8732C9.37525 21.1768 9.6719 20.509 10.1997 20.0167C10.7275 19.5244 11.4432 19.248 12.1894 19.2482C12.9355 19.2485 13.6511 19.5254 14.1785 20.018C14.7059 20.5106 15.0021 21.1786 15.0019 21.875C15.0016 22.5714 14.705 23.2392 14.1772 23.7315C13.6494 24.2238 12.9337 24.5002 12.1875 24.5ZM12.1875 14C11.4413 13.9998 10.7258 13.7229 10.1984 13.2303C9.67093 12.7377 9.37475 12.0697 9.375 11.3733C9.37525 10.6768 9.6719 10.009 10.1997 9.51673C10.7275 9.02445 11.4432 8.74802 12.1894 8.74825C12.9355 8.74848 13.6511 9.02536 14.1785 9.51797C14.7059 10.0106 15.0021 10.6786 15.0019 11.375C15.0016 12.0714 14.705 12.7392 14.1772 13.2315C13.6494 13.7238 12.9337 14.0002 12.1875 14ZM17.8125 19.25C17.443 19.2499 17.0772 19.1819 16.7359 19.0498C16.3946 18.9177 16.0845 18.7242 15.8234 18.4803C15.2959 17.9877 14.9998 17.3197 15 16.6232C15.0001 16.2784 15.073 15.937 15.2145 15.6184C15.356 15.2999 15.5634 15.0105 15.8247 14.7667C16.3525 14.2744 17.0682 13.998 17.8144 13.9983C18.5605 13.9985 19.2761 14.2754 19.8035 14.768C20.3309 15.2606 20.6271 15.9286 20.6269 16.625C20.6266 17.3214 20.33 17.9892 19.8022 18.4815C19.2744 18.9738 18.5587 19.2502 17.8125 19.25ZM23.4375 24.5C22.6913 24.4998 21.9758 24.2229 21.4484 23.7303C20.9209 23.2377 20.6248 22.5697 20.625 21.8732C20.6252 21.1768 20.9219 20.509 21.4497 20.0167C21.9775 19.5244 22.6932 19.248 23.4394 19.2482C24.1855 19.2485 24.9011 19.5254 25.4285 20.018C25.9559 20.5106 26.2521 21.1786 26.2519 21.875C26.2516 22.5714 25.955 23.2392 25.4272 23.7315C24.8994 24.2238 24.1837 24.5002 23.4375 24.5ZM23.4375 14C22.6913 13.9998 21.9758 13.7229 21.4484 13.2303C20.9209 12.7377 20.6248 12.0697 20.625 11.3733C20.6252 10.6768 20.9219 10.009 21.4497 9.51673C21.9775 9.02445 22.6932 8.74802 23.4394 8.74825C24.1855 8.74848 24.9011 9.02536 25.4285 9.51797C25.9559 10.0106 26.2521 10.6786 26.2519 11.375C26.2516 12.0714 25.955 12.7392 25.4272 13.2315C24.8994 13.7238 24.1837 14.0002 23.4375 14ZM24.2794 3.5C24.0604 2.51346 23.4846 1.62721 22.6485 0.98994C21.8124 0.35267 20.767 0.00314405 19.6875 0L4.6875 0C3.44536 0.00323256 2.25509 0.465207 1.37676 1.28498C0.498436 2.10475 0.00346346 3.21567 0 4.375L0 18.375C0 20.482 1.61625 22.253 3.75 22.6608V7C3.75 5.25 5.625 3.5 7.5 3.5H24.2794Z" fill="#C1C1C1"/>
</svg>
