<svg width="15" height="15" viewBox="0 0 15 15" fill="none" xmlns="http://www.w3.org/2000/svg">
<rect x="7.77832" y="2.82837" width="5" height="11" transform="rotate(45 7.77832 2.82837)" fill="white"/>
<rect y="10.6067" width="3.58577" height="3.58577" fill="white"/>
<path fill-rule="evenodd" clip-rule="evenodd" d="M11.9853 5.62149C12.1227 5.53044 12.2531 5.42438 12.3742 5.3033C13.3505 4.32699 13.3505 2.74408 12.3742 1.76777C11.3979 0.791456 9.81499 0.791456 8.83868 1.76777C8.7176 1.88885 8.61153 2.01926 8.52049 2.15668L11.9853 5.62149ZM10.9601 6.01054L8.13144 3.18185C8.02458 3.93374 8.26033 4.72495 8.83868 5.3033C9.41703 5.88165 10.2082 6.1174 10.9601 6.01054Z" fill="white"/>
<rect x="6" y="13" width="9" height="1" fill="white"/>
</svg>
