<svg width="18" height="18" viewBox="0 0 18 18" fill="none" xmlns="http://www.w3.org/2000/svg">
<path d="M1.8 17.2174H2.7V5.43707H1.8C1.32261 5.43707 0.864773 5.62802 0.527208 5.9679C0.189642 6.30778 0 6.76876 0 7.24943V15.405C0 15.8857 0.189642 16.3467 0.527208 16.6866C0.864773 17.0264 1.32261 17.2174 1.8 17.2174ZM16.2 5.43707H9.9L10.9098 2.38506C10.9999 2.11268 11.0244 1.82264 10.9814 1.53883C10.9384 1.25503 10.829 0.985572 10.6623 0.752667C10.4956 0.519762 10.2763 0.330068 10.0225 0.19921C9.76868 0.0683525 9.48764 7.44088e-05 9.2025 0H9L4.5 4.9278V17.2174H14.4L17.9208 9.42788L18 9.06179V7.24943C18 6.76876 17.8104 6.30778 17.4728 5.9679C17.1352 5.62802 16.6774 5.43707 16.2 5.43707Z" fill="#C1C1C1"/>
</svg>
