<svg width="41" height="39" viewBox="0 0 41 39" fill="none" xmlns="http://www.w3.org/2000/svg">
<path fill-rule="evenodd" clip-rule="evenodd" d="M17.8416 0C13.4875 0 9.95703 3.40271 9.95703 7.6003C9.95703 8.68422 10.1974 9.71515 10.6205 10.6481L17.9762 22.4043L25.0627 10.6481C25.4986 9.69144 25.7237 8.65195 25.723 7.6003C25.723 3.40271 22.1958 0 17.8416 0ZM17.8416 12.991C17.1909 12.99 16.5468 12.8604 15.9461 12.6098C15.3454 12.3591 14.7999 11.9923 14.3407 11.5303C13.8816 11.0683 13.5178 10.5201 13.2702 9.91716C13.0226 9.31418 12.896 8.66822 12.8977 8.01621C12.8965 7.36438 13.0233 6.71869 13.2711 6.116C13.5189 5.51331 13.8827 4.96542 14.3418 4.50361C14.8009 4.04181 15.3462 3.67514 15.9467 3.42452C16.5472 3.17391 17.1911 3.04428 17.8416 3.04301C19.1554 3.04599 20.4142 3.57147 21.3416 4.50399C22.2689 5.4365 22.7888 6.69977 22.7871 8.01621C22.7892 9.33292 22.2695 10.5966 21.3421 11.5295C20.4148 12.4623 19.1557 12.988 17.8416 12.991ZM21.0099 7.95197C21.0107 8.36986 20.9294 8.78381 20.7705 9.17019C20.6117 9.55657 20.3784 9.9078 20.084 10.2038C19.7896 10.4998 19.4399 10.7348 19.0549 10.8954C18.6699 11.0559 18.2571 11.1389 17.84 11.1395C16.9982 11.1374 16.1916 10.8005 15.5975 10.2028C15.0035 9.60509 14.6705 8.79553 14.6718 7.95197C14.6711 7.53444 14.7526 7.12086 14.9115 6.73486C15.0703 6.34886 15.3035 5.998 15.5977 5.70231C15.8919 5.40662 16.2414 5.17189 16.6261 5.01152C17.0108 4.85115 17.4233 4.76828 17.84 4.76765C19.59 4.76765 21.0099 6.19522 21.0099 7.95197Z" fill="#C1C1C1"/>
<path fill-rule="evenodd" clip-rule="evenodd" d="M9.66515 12.1149H8.13192C4.85882 12.1149 0 13.6981 0 18.0894V19.583C0 23.9742 4.85882 25.5575 8.13192 25.5575H12.1326C12.9864 27.29 15.2227 28.5447 17.8656 28.5447C20.5085 28.5447 22.7447 27.29 23.5986 25.5575H32.5277C33.1986 25.5575 36.5936 25.7068 36.5936 28.5447V30.0383C36.5936 32.7716 33.4628 33.0255 32.5277 33.0255H11.8319C10.9781 31.2929 8.74181 30.0383 6.09894 30.0383C4.4814 30.0383 2.93011 30.5104 1.78634 31.3507C0.642565 32.191 0 33.3308 0 34.5192C0 35.7076 0.642565 36.8473 1.78634 37.6876C2.93011 38.5279 4.4814 39 6.09894 39C8.74181 39 10.9781 37.7454 11.8319 36.0128H32.5277C35.8008 36.0128 40.6596 34.4146 40.6596 30.0383V28.5447C40.6596 24.1684 35.8008 22.5702 32.5277 22.5702H23.5986C23.1112 21.5812 22.1734 20.748 20.9666 20.2149L18.0197 24.8936L14.9179 20.1494C13.6373 20.6783 12.6404 21.5397 12.1326 22.5702H8.13192C7.46104 22.5702 4.06596 22.4209 4.06596 19.583V18.0894C4.06596 15.356 7.19675 15.1021 8.13192 15.1021H11.6182L9.66515 12.1149ZM24.1869 15.1021L26.0684 12.1149H28.8277C29.6815 10.3823 31.9178 9.12766 34.5607 9.12766C36.1782 9.12766 37.7295 9.59974 38.8733 10.4401C40.017 11.2804 40.6596 12.4201 40.6596 13.6085C40.6596 14.7969 40.017 15.9366 38.8733 16.777C37.7295 17.6173 36.1782 18.0894 34.5607 18.0894C31.9178 18.0894 29.6815 16.8347 28.8277 15.1021H24.1869ZM35.9982 12.5524C35.6169 12.2723 35.0998 12.1149 34.5607 12.1149C34.0215 12.1149 33.5044 12.2723 33.1231 12.5524C32.7419 12.8325 32.5277 13.2124 32.5277 13.6085C32.5277 14.0046 32.7419 14.3845 33.1231 14.6647C33.5044 14.9448 34.0215 15.1021 34.5607 15.1021C35.0998 15.1021 35.6169 14.9448 35.9982 14.6647C36.3795 14.3845 36.5936 14.0046 36.5936 13.6085C36.5936 13.2124 36.3795 12.8325 35.9982 12.5524ZM4.66141 35.5753C5.04266 35.8554 5.55976 36.0128 6.09894 36.0128C6.63812 36.0128 7.15522 35.8554 7.53647 35.5753C7.91773 35.2952 8.13192 34.9153 8.13192 34.5192C8.13192 34.123 7.91773 33.7431 7.53647 33.463C7.15522 33.1829 6.63812 33.0255 6.09894 33.0255C5.55976 33.0255 5.04266 33.1829 4.66141 33.463C4.28015 33.7431 4.06596 34.123 4.06596 34.5192C4.06596 34.9153 4.28015 35.2952 4.66141 35.5753Z" fill="#C1C1C1"/>
</svg>
