<svg width="12" height="13" viewBox="0 0 12 13" fill="none" xmlns="http://www.w3.org/2000/svg">
<path d="M0.428711 9.27317L3.25626 10.0307L5.90726 9.44217L8.62151 10.0307L11.4287 9.26963V8.86367C11.4287 8.39352 11.2549 7.94262 10.9454 7.61017C10.636 7.27772 10.2163 7.09095 9.77871 7.09095H2.07871C1.6411 7.09095 1.22142 7.27772 0.911984 7.61017C0.602549 7.94262 0.428711 8.39352 0.428711 8.86367V9.27317ZM0.428711 10.4922V13H11.4287V10.4887L8.64736 11.2421L5.90946 10.6488L3.23701 11.2421L0.428711 10.4922ZM7.57871 5.31822H4.27871V6.50004H7.57871V5.31822ZM5.92871 4.92788C6.36632 4.92788 6.5614 4.73394 6.87083 4.40149C7.18027 4.06904 7.23043 3.34687 7.0994 2.98854C6.76001 2.06043 6.0537 2.04987 6.15051 0.0102583C4.89009 1.44036 4.41895 2.52952 4.41895 3.18247C4.41895 3.65263 4.59435 4.11752 4.90379 4.44997C5.21322 4.78242 5.4911 4.92788 5.92871 4.92788Z" fill="#5B5B5B"/>
</svg>
