<svg width="12" height="12" viewBox="0 0 12 12" fill="none" xmlns="http://www.w3.org/2000/svg">
<path d="M3.66667 5.4V6.6H2.44444V5.4H3.66667ZM6.11111 5.4V6.6H4.88889V5.4H6.11111ZM8.55556 5.4V6.6H7.33333V5.4H8.55556ZM9.77778 1.2C10.1019 1.2 10.4128 1.32643 10.642 1.55147C10.8712 1.77652 11 2.08174 11 2.4V10.8C11 11.1183 10.8712 11.4235 10.642 11.6485C10.4128 11.8736 10.1019 12 9.77778 12H1.22222C0.898069 12 0.587192 11.8736 0.357981 11.6485C0.128769 11.4235 0 11.1183 0 10.8V2.4C0 2.08174 0.128769 1.77652 0.357981 1.55147C0.587192 1.32643 0.898069 1.2 1.22222 1.2H1.83333V0H3.05556V1.2H7.94444V0H9.16667V1.2H9.77778ZM9.77778 10.8V4.2H1.22222V10.8H9.77778ZM3.66667 7.8V9H2.44444V7.8H3.66667ZM6.11111 7.8V9H4.88889V7.8H6.11111ZM8.55556 7.8V9H7.33333V7.8H8.55556Z" fill="#55595D"/>
</svg>
