<svg width="50" height="50" viewBox="0 0 50 50" fill="none" xmlns="http://www.w3.org/2000/svg">
<g clip-path="url(#clip0)">
<path d="M33.0463 17.0818C33.0463 22.7579 29.0082 26.3103 24.9702 26.3103C20.9321 26.3103 16.8941 22.7579 16.8941 17.0818C16.8941 11.4057 19.5861 8 24.9702 8C30.3542 8 33.0463 11.4057 33.0463 17.0818ZM38.995 43.092C38.9903 35.3117 39.0083 36.8182 38.995 36.5957C38.995 29.9778 35.7594 26.3103 24.9702 26.3103C14.181 26.3103 10.9997 29.9778 11 36.5957C11 36.8208 11.0048 35.2984 11.0001 43.092C11.0272 49.5127 20.2591 51 24.9701 51C29.0081 51 38.995 49.5127 38.995 43.092Z" fill="white"/>
<path fill-rule="evenodd" clip-rule="evenodd" d="M25 50C38.8071 50 50 38.8071 50 25V50H25ZM0 25C0 38.8071 11.1929 50 25 50H0V25ZM25 0C11.1929 0 0 11.1929 0 25V0H25ZM25 0H50V25C50 11.1929 38.8071 0 25 0Z" fill="white"/>
</g>
<defs>
<clipPath id="clip0">
<rect width="50" height="50" fill="white"/>
</clipPath>
</defs>
</svg>
